<svg xmlns="http://www.w3.org/2000/svg" viewBox="0 0 1400 1700" role="img" aria-label="Rejuvera consultation suite">
  <defs>
    <linearGradient id="bg" x1="0" x2="1" y1="0" y2="1">
      <stop stop-color="#fff8f1"/>
      <stop offset=".48" stop-color="#f2e6f6"/>
      <stop offset="1" stop-color="#d9c4e8"/>
    </linearGradient>
    <linearGradient id="violet" x1="0" x2="1">
      <stop stop-color="#32105d"/>
      <stop offset="1" stop-color="#8b5bb8"/>
    </linearGradient>
    <filter id="shadow" x="-20%" y="-20%" width="140%" height="140%">
      <feDropShadow dx="0" dy="34" stdDeviation="38" flood-color="#32105d" flood-opacity=".22"/>
    </filter>
  </defs>
  <rect width="1400" height="1700" fill="url(#bg)"/>
  <circle cx="1170" cy="210" r="170" fill="none" stroke="#c9a26a" stroke-width="5"/>
  <circle cx="220" cy="1430" r="300" fill="#ffffff" opacity=".38"/>
  <path d="M0 1180 C300 1030 470 1125 720 1000 C990 865 1115 670 1400 715 L1400 1700 L0 1700Z" fill="#ffffff" opacity=".62"/>
  <g filter="url(#shadow)">
    <rect x="170" y="510" width="1060" height="720" rx="74" fill="#fffdf9"/>
    <rect x="230" y="580" width="940" height="560" rx="54" fill="#f7eef9"/>
    <path d="M300 1030 C440 930 580 975 700 890 C825 802 955 790 1095 865 L1095 1140 L300 1140Z" fill="#eadcf2"/>
    <circle cx="510" cy="790" r="116" fill="#d8bde9"/>
    <path d="M388 1120 C410 980 465 900 555 900 C650 900 710 984 730 1120Z" fill="url(#violet)"/>
    <circle cx="895" cy="760" r="126" fill="#c9a26a" opacity=".42"/>
    <path d="M745 1120 C775 958 845 875 945 875 C1050 875 1120 970 1145 1120Z" fill="#4a2476"/>
  </g>
  <g fill="none" stroke="#4a2476" stroke-linecap="round" stroke-width="12" opacity=".78">
    <path d="M420 390 h360"/>
    <path d="M420 438 h235"/>
  </g>
  <g fill="#55d6a7">
    <circle cx="935" cy="390" r="28"/>
    <circle cx="1018" cy="390" r="28"/>
  </g>
</svg>
