<svg xmlns="http://www.w3.org/2000/svg" viewBox="0 0 1400 1700" role="img" aria-label="Rejuvera calm skin care room">
  <defs>
    <linearGradient id="bg" x1="0" x2="1" y1="0" y2="1">
      <stop stop-color="#fffaf4"/>
      <stop offset=".55" stop-color="#efe3f4"/>
      <stop offset="1" stop-color="#dbc2eb"/>
    </linearGradient>
    <linearGradient id="bed" x1="0" x2="1">
      <stop stop-color="#ffffff"/>
      <stop offset="1" stop-color="#f2e8f8"/>
    </linearGradient>
    <filter id="shadow" x="-20%" y="-20%" width="140%" height="140%">
      <feDropShadow dx="0" dy="34" stdDeviation="38" flood-color="#32105d" flood-opacity=".22"/>
    </filter>
  </defs>
  <rect width="1400" height="1700" fill="url(#bg)"/>
  <path d="M120 420 C335 300 520 330 725 250 C930 170 1115 170 1320 255" fill="none" stroke="#fff" stroke-width="58" stroke-linecap="round" opacity=".55"/>
  <g filter="url(#shadow)">
    <rect x="180" y="470" width="1040" height="760" rx="82" fill="#fffdf9"/>
    <rect x="275" y="940" width="850" height="135" rx="68" fill="url(#bed)"/>
    <rect x="360" y="1075" width="690" height="76" rx="38" fill="#4a2476"/>
    <circle cx="555" cy="780" r="116" fill="#e1c8ed"/>
    <path d="M425 950 C456 848 505 804 585 804 C670 804 735 860 760 950Z" fill="#4a2476"/>
    <path d="M750 860 C840 760 970 742 1090 810" fill="none" stroke="#c9a26a" stroke-width="28" stroke-linecap="round"/>
    <path d="M780 930 C880 845 1000 848 1115 910" fill="none" stroke="#55d6a7" stroke-width="20" stroke-linecap="round"/>
  </g>
  <circle cx="1150" cy="330" r="140" fill="none" stroke="#c9a26a" stroke-width="5"/>
  <circle cx="250" cy="1340" r="210" fill="#ffffff" opacity=".36"/>
  <g fill="#4a2476" opacity=".84">
    <rect x="360" y="585" width="330" height="28" rx="14"/>
    <rect x="360" y="640" width="230" height="28" rx="14"/>
  </g>
</svg>
