<svg xmlns="http://www.w3.org/2000/svg" viewBox="0 0 1400 1700" role="img" aria-label="Rejuvera advanced aesthetic technology">
  <defs>
    <linearGradient id="bg" x1="0" x2="1" y1="0" y2="1">
      <stop stop-color="#fbf5ef"/>
      <stop offset=".48" stop-color="#eee2f5"/>
      <stop offset="1" stop-color="#cdb5df"/>
    </linearGradient>
    <linearGradient id="device" x1="0" x2="1" y1="0" y2="1">
      <stop stop-color="#ffffff"/>
      <stop offset="1" stop-color="#e9ddf1"/>
    </linearGradient>
    <filter id="shadow" x="-20%" y="-20%" width="140%" height="140%">
      <feDropShadow dx="0" dy="34" stdDeviation="40" flood-color="#32105d" flood-opacity=".24"/>
    </filter>
  </defs>
  <rect width="1400" height="1700" fill="url(#bg)"/>
  <circle cx="260" cy="250" r="120" fill="#c9a26a" opacity=".18"/>
  <circle cx="1120" cy="1330" r="260" fill="#ffffff" opacity=".42"/>
  <g filter="url(#shadow)">
    <rect x="250" y="365" width="900" height="1010" rx="72" fill="#fffdf9"/>
    <rect x="332" y="465" width="736" height="310" rx="48" fill="#4a2476"/>
    <rect x="392" y="525" width="356" height="52" rx="26" fill="#fff8f0" opacity=".92"/>
    <rect x="392" y="610" width="520" height="30" rx="15" fill="#c9a26a" opacity=".9"/>
    <rect x="392" y="674" width="420" height="30" rx="15" fill="#55d6a7" opacity=".82"/>
    <path d="M710 775 L835 1205" stroke="#4a2476" stroke-width="42" stroke-linecap="round"/>
    <path d="M830 790 L970 1180" stroke="#c9a26a" stroke-width="24" stroke-linecap="round"/>
    <rect x="560" y="1180" width="460" height="76" rx="38" fill="url(#device)"/>
    <rect x="475" y="1260" width="600" height="74" rx="37" fill="#4a2476"/>
  </g>
  <path d="M170 1015 C345 905 485 932 650 845 C840 744 1015 685 1245 785" fill="none" stroke="#ffffff" stroke-width="44" stroke-linecap="round" opacity=".58"/>
  <g fill="#55d6a7">
    <circle cx="1072" cy="525" r="34"/>
    <circle cx="1072" cy="625" r="34"/>
  </g>
</svg>
