<svg xmlns="http://www.w3.org/2000/svg" viewBox="0 0 96 56" role="img" aria-label="Apple Pay">
  <rect width="96" height="56" rx="10" fill="#ffffff" stroke="#e6e6e9"/>
  <g transform="translate(14,18)" fill="#0c0c0c">
    <path d="M9.6 4.8a4.4 4.4 0 0 1 2.4-2c.2 1-.2 2-.9 2.6-.7.7-1.6 1.1-2.5 1.1A4 4 0 0 1 9.6 4.8zM12.4 7.6c-1.3 0-2.4.8-3 .8-.6 0-1.6-.7-2.6-.7-1.4 0-2.7.8-3.4 2.1-1.5 2.5-.4 6.2 1 8.2.7 1 1.6 2.1 2.6 2 1 0 1.4-.6 2.7-.6 1.2 0 1.6.6 2.7.6 1.1 0 1.8-1 2.5-2 .7-1 1-1.9 1.1-1.9-1.5-.6-3-2.2-3-4.2 0-1.8 1.4-2.7 1.5-2.8-.8-1.2-2.1-1.5-2.7-1.5z"/>
    <text x="22" y="14" font-family="'Inter',Arial,sans-serif" font-size="11" font-weight="700" fill="#0c0c0c">Pay</text>
  </g>
</svg>
