<svg xmlns="http://www.w3.org/2000/svg" viewBox="0 0 220 88" role="img" aria-label="الهيئة السعودية للتخصصات الصحية - Saudi Health Council">
  <defs>
    <linearGradient id="shc-bg" x1="0" y1="0" x2="1" y2="1">
      <stop offset="0%" stop-color="#152343"/>
      <stop offset="100%" stop-color="#27407c"/>
    </linearGradient>
  </defs>
  <rect width="220" height="88" rx="14" fill="url(#shc-bg)"/>
  <g transform="translate(20,16)">
    <path d="M24 4 4 14v14c0 11 7 18 20 22 13-4 20-11 20-22V14z" fill="#cba24a" opacity="0.96"/>
    <path d="M24 11 11 17v11c0 8 5 13 13 16 8-3 13-8 13-16V17z" fill="#1a2746"/>
    <path d="M19 21h10v6h6v6h-6v6h-10v-6h-6v-6h6z" fill="#cba24a"/>
  </g>
  <g fill="#ffffff" font-family="'IBM Plex Sans Arabic','Arial',sans-serif">
    <text x="78" y="36" font-size="10" font-weight="700" text-anchor="start">الهيئة السعودية</text>
    <text x="78" y="52" font-size="9" font-weight="600" opacity="0.85" text-anchor="start">للتخصصات الصحية</text>
    <text x="78" y="66" font-size="7.5" opacity="0.65" letter-spacing="0.3" text-anchor="start">Saudi Health Council</text>
  </g>
</svg>
